<?xml version="1.0" encoding="utf-8"?>
<!-- Generator: Adobe Illustrator 28.0.0, SVG Export Plug-In . SVG Version: 6.00 Build 0)  -->
<svg version="1.1" id="Layer_1" xmlns="http://www.w3.org/2000/svg" xmlns:xlink="http://www.w3.org/1999/xlink" x="0px" y="0px"
	 viewBox="0 0 150.9 18.3" style="enable-background:new 0 0 150.9 18.3;" xml:space="preserve">
<style type="text/css">
	.st0{fill:#D90000;}
</style>
<g>
	<path class="st0" d="M15.6,0.4v6.2H8.3V8h7.4v2.4H8.3v1.4h7.4v6.2H0V0.4H15.6z"/>
	<path class="st0" d="M17.4,0.8c2.3-0.3,6.1-0.7,9.4-0.7c6.8,0,9.5,2.1,9.5,7.6c0,5-2.3,7.3-7.3,7.3c-0.7,0-2-0.1-3.3-0.2v3.2h-8.3
		V0.8z M25.6,9.6h2.1c0.3-1.4,0.3-2.8,0-4.3h-2.1V9.6z"/>
	<path class="st0" d="M37.7,0.4h8.3v17.5h-8.3V0.4z"/>
	<path class="st0" d="M65.4,6.7v2.7h-7.3V6.7h-2.5v4.5c1.3,0.1,3,0.2,4.7,0.2c1.7,0,3.5-0.1,4.9-0.2v6.3c-2.3,0.4-4.7,0.8-8.1,0.8
		c-7.1,0-9.8-2.6-9.8-9.5C47.4,2.3,50,0,57,0C62.9,0,65.4,2,65.4,6.7z"/>
	<path class="st0" d="M83.8,0.4v6.7h-4.6v10.9h-8.3V7.1h-4.6V0.4H83.8z"/>
	<path class="st0" d="M103.7,9.5c-0.1,6.5-2.4,8.8-9.4,8.8c-7,0-9.6-2.3-9.6-8.8c0-6.9,2.7-9.5,9.6-9.5C101.2,0,103.7,2.6,103.7,9.5
		z M94.8,6.7h-2.5c0.1,1.9,0.4,3.4,1.1,4.9h2.5C95.8,9.7,95.5,8.3,94.8,6.7z"/>
	<path class="st0" d="M106.5,17.9l-2.3-17.5h7.8l0.8,10.9h0.5l1.3-10.9h6.2l1.3,10.9h0.5l0.8-10.9h7.8l-2.3,17.5h-9.9l-0.9-5.8h-0.5
		l-0.9,5.8H106.5z"/>
	<path class="st0" d="M131.9,0.4h5.9l0.6,3.1h0.7c0.2-2.1,2.2-3.6,5.2-3.6c4.8,0,6.6,1.9,6.6,6.7v11.2h-8.3V8.5h-2.5v9.5h-8.3V0.4z"
		/>
</g>
<g>
</g>
<g>
</g>
<g>
</g>
<g>
</g>
<g>
</g>
<g>
</g>
</svg>
